<?xml version="1.0" standalone="no"?>
<!DOCTYPE svg PUBLIC "-//W3C//DTD SVG 1.1//EN" "http://www.w3.org/Graphics/SVG/1.1/DTD/svg11.dtd" >
<svg xmlns="http://www.w3.org/2000/svg" xmlns:xlink="http://www.w3.org/1999/xlink" version="1.1">
<metadata>
Created by FontForge 20170731 at Tue Jun  9 02:59:34 2020
 By Aleksey,,,
Copyright 2016 Google Inc. All Rights Reserved.
</metadata>
<defs>
<font id="NotoSerifHebrew-Thin" horiz-adv-x="0" >
  <font-face 
    font-family="Noto Serif Hebrew Thin"
    font-weight="250"
    font-stretch="normal"
    units-per-em="1000"
    panose-1="0 0 0 0 0 0 0 0 0 0"
    ascent="800"
    descent="-200"
    bbox="-210 -240 829 873"
    underline-thickness="50"
    underline-position="-175"
    unicode-range="U+000D-FB4F"
  />
<missing-glyph horiz-adv-x="600" 
d="M94 0v714h411v-714h-411zM145 51h309v612h-309v-612z" />
    <glyph glyph-name=".notdef" horiz-adv-x="600" 
d="M94 0v714h411v-714h-411zM145 51h309v612h-309v-612z" />
    <glyph glyph-name=".null" 
 />
    <glyph glyph-name="nonmarkingreturn" horiz-adv-x="333" 
 />
    <glyph glyph-name="NULL" 
 />
    <glyph glyph-name="NULL" 
 />
    <glyph glyph-name="CR" unicode="&#xd;" horiz-adv-x="260" 
 />
    <glyph glyph-name="space" unicode=" " horiz-adv-x="260" 
 />
    <glyph glyph-name="hyphen" unicode="-" horiz-adv-x="310" 
d="M25 259v28h260v-28h-260z" />
    <glyph glyph-name="uni00A0" unicode="&#xa0;" horiz-adv-x="260" 
 />
    <glyph glyph-name="uni0591" unicode="&#x591;" 
d="M92 -87l26 2v-37q12 -3 20.5 -9.5t13.5 -14.5t6 -16t1 -18q0 -6 -0.5 -17.5t-1.5 -17.5l-26 -2q2 8 2 18v15q0 20 -7.5 29t-21.5 9q-28 0 -28 -37q0 -4 0.5 -14.5t1.5 -17.5l-26 -2q-1 6 -1.5 17t-0.5 17q0 11 2 19.5t6 17.5q7 18 34 24v35z" />
    <glyph glyph-name="uni0592" unicode="&#x592;" 
d="M118 749q-12 0 -16.5 9t-4.5 19q0 12 4.5 20t16.5 8q15 0 19 -8t4 -20q0 -10 -4 -19t-19 -9zM71 660q-12 0 -16.5 9t-4.5 19q0 12 4.5 20t16.5 8q15 0 19 -8t4 -20q0 -10 -4 -19t-19 -9zM166 660q-12 0 -16.5 9t-4.5 19q0 12 4.5 20t16.5 8q15 0 19 -8t4 -20
q0 -10 -4 -19t-19 -9z" />
    <glyph glyph-name="uni0593" unicode="&#x593;" 
d="M50 652l47 26l-47 26l47 26l-47 26l47 26h41l-47 -26l47 -26l-47 -26l47 -26l-53 -26h-35z" />
    <glyph glyph-name="uni0594" unicode="&#x594;" 
d="M71 749q-12 0 -16.5 8.5t-4.5 19.5t4.5 19.5t16.5 8.5q15 0 19 -8.5t4 -19.5t-4 -19.5t-19 -8.5zM71 660q-12 0 -16.5 8.5t-4.5 19.5t4.5 19.5t16.5 8.5q15 0 19 -8.5t4 -19.5t-4 -19.5t-19 -8.5z" />
    <glyph glyph-name="uni0595" unicode="&#x595;" 
d="M50 660v142l25 3v-142zM131 660q-13 0 -17 8.5t-4 19.5t4 19.5t17 8.5q15 0 19 -8.5t4 -19.5t-4 -19.5t-19 -8.5zM131 749q-13 0 -17 8.5t-4 19.5t4 19.5t17 8.5q15 0 19 -8.5t4 -19.5t-4 -19.5t-19 -8.5z" />
    <glyph glyph-name="uni0596" unicode="&#x596;" 
d="M113 -189l-2 -28q-18 5 -30 13t-20 18q-9 12 -10.5 42t0.5 58l27 2q0 -11 -0.5 -29t1 -34t4.5 -23q3 -6 11 -10.5t19 -8.5z" />
    <glyph glyph-name="uni0597" unicode="&#x597;" 
d="M93 660l-43 48l43 48l43 -48z" />
    <glyph glyph-name="uni0598" unicode="&#x598;" 
d="M81 660q-31 10 -31 45q0 19 11.5 30.5t30.5 11.5q14 0 25.5 -7.5t25.5 -28.5q11 -16 19 -23t17 -7q8 0 13.5 5.5t5.5 16.5q0 16 -17 24l8 21q31 -12 31 -45q0 -19 -11.5 -30.5t-29.5 -11.5q-14 0 -26 7.5t-26 27.5q-13 18 -19.5 24.5t-16.5 6.5q-8 0 -13.5 -5.5
t-5.5 -16.5q0 -9 4.5 -15t12.5 -10z" />
    <glyph glyph-name="uni0599" unicode="&#x599;" 
d="M50 772l2 28q18 -4 30.5 -12t19.5 -19q9 -12 10 -42t-1 -58l-26 -2q1 11 1 29t-1 34.5t-5 22.5q-3 6 -11 10.5t-19 8.5z" />
    <glyph glyph-name="uni059A" unicode="&#x59a;" 
d="M114 -197l-64 64l64 63l23 -14l-50 -49l50 -49z" />
    <glyph glyph-name="uni059B" unicode="&#x59b;" 
d="M71 -128q-9 0 -15 6t-6 15q0 8 6 14t15 6q8 0 14 -6t6 -14q0 -9 -6 -15t-14 -6zM83 -190q11 3 18 8t10 11q4 7 5 22t1 32t-1 28l27 2q2 -28 1 -58t-10 -42q-17 -23 -53 -31z" />
    <glyph glyph-name="uni059C" unicode="&#x59c;" 
d="M113 772q-11 -4 -19 -8.5t-11 -10.5t-4.5 -22.5t-1 -34.5t0.5 -29l-27 2q-2 28 -0.5 58t10.5 42q8 11 20 19t30 12z" />
    <glyph glyph-name="uni059D" unicode="&#x59d;" 
d="M113 772q-11 -4 -19 -8.5t-11 -10.5t-4.5 -22.5t-1 -34.5t0.5 -29l-27 2q-2 28 -0.5 58t10.5 42q8 11 20 19t30 12z" />
    <glyph glyph-name="uni059E" unicode="&#x59e;" 
d="M113 772q-25 -8 -30 -19q-3 -6 -4.5 -22.5t-1 -34.5t0.5 -29l-27 2q-2 28 -1 58t10 42q8 10 20.5 18.5t30.5 12.5zM185 772q-25 -8 -30 -19q-3 -6 -4.5 -22.5t-1 -34.5t1.5 -29l-28 2q-1 28 0 58t10 42q8 11 20 19t30 12z" />
    <glyph glyph-name="uni059F" unicode="&#x59f;" 
d="M201 670l-20 20l21 21q-3 5 -5 11.5t-2 13.5q0 22 15 36.5t37 14.5q21 0 36 -14.5t15 -36.5q0 -21 -14.5 -36t-36.5 -15q-13 0 -25 6zM147 670l-21 21q-12 -6 -25 -6q-22 0 -36.5 15t-14.5 36q0 22 15 36.5t36 14.5q22 0 37 -14.5t15 -36.5q0 -7 -2 -13.5t-5 -11.5
l21 -21zM102 711q10 0 17.5 7.5t7.5 17.5q0 11 -7.5 18.5t-17.5 7.5t-18.5 -7.5t-8.5 -18.5q0 -10 8.5 -17.5t18.5 -7.5zM246 711q11 0 19 7.5t8 17.5q0 11 -8 18.5t-19 7.5q-10 0 -17.5 -7.5t-7.5 -18.5q0 -10 7.5 -17.5t17.5 -7.5z" />
    <glyph glyph-name="uni05A0" unicode="&#x5a0;" 
d="M70 670l-20 20l22 21q-3 5 -5 11.5t-2 13.5q0 22 15 36.5t36 14.5q22 0 37 -14.5t15 -36.5q0 -21 -15 -36t-37 -15q-14 0 -25 6zM116 711q11 0 18.5 7.5t7.5 17.5q0 11 -8 18.5t-18 7.5t-17.5 -7.5t-7.5 -18.5q0 -10 7.5 -17.5t17.5 -7.5z" />
    <glyph glyph-name="uni05A1" unicode="&#x5a1;" 
d="M50 667v115l29 1v-49q2 -1 4.5 -2t7.5 -1q13 0 18.5 6t5.5 22v23l29 1v-24q0 -25 -12 -40t-38 -15q-4 0 -8 1t-7 3v-39z" />
    <glyph glyph-name="uni05A2" unicode="&#x5a2;" 
d="M117 -215l-26 -2v37q-12 3 -20.5 9.5t-13.5 14.5t-6 16t-1 18q0 6 0.5 17.5t1.5 17.5l26 2q-1 -7 -1.5 -17.5t-0.5 -15.5q0 -19 7.5 -28.5t21.5 -9.5q28 0 28 37v15t-2 17l26 2q1 -6 1.5 -17t0.5 -17q0 -11 -2 -19.5t-6 -17.5q-7 -18 -34 -24v-35z" />
    <glyph glyph-name="uni05A3" unicode="&#x5a3;" 
d="M50 -171l1 26h65v62l27 2v-90h-93z" />
    <glyph glyph-name="uni05A4" unicode="&#x5a4;" 
d="M114 -197l-64 64l64 63l23 -14l-50 -49l50 -49z" />
    <glyph glyph-name="uni05A5" unicode="&#x5a5;" 
d="M52 -189q11 4 18.5 8.5t10.5 10.5q4 7 5 22.5t1 33t-1 28.5l26 2q2 -28 1 -59t-10 -43q-7 -10 -20.5 -18t-32.5 -13z" />
    <glyph glyph-name="uni05A6" unicode="&#x5a6;" 
d="M122 -185q23 6 29 19q3 7 4.5 23.5t1.5 33.5t-1 27l27 2q2 -28 1 -59t-10 -44q-7 -10 -19 -18t-31 -13zM50 -185q24 7 29 19q3 7 4 23t1.5 33.5t-0.5 27.5l27 2q2 -28 1 -59t-10 -44q-7 -10 -19 -18t-31 -13z" />
    <glyph glyph-name="uni05A7" unicode="&#x5a7;" 
d="M57 -181v20l46 15l-53 67l82 13v-19l-46 -7l53 -66z" />
    <glyph glyph-name="uni05A8" unicode="&#x5a8;" 
d="M50 772l2 28q18 -4 30.5 -12t19.5 -19q9 -12 10 -42t-1 -58l-26 -2q1 11 1 29t-1 34.5t-5 22.5q-3 6 -11 10.5t-19 8.5z" />
    <glyph glyph-name="uni05A9" unicode="&#x5a9;" 
d="M148 670l-21 21q-10 -6 -25 -6q-22 0 -37 15t-15 36q0 22 15 36.5t37 14.5q21 0 36 -14.5t15 -36.5q0 -7 -2 -13.5t-5 -11.5l22 -21zM102 711q11 0 18 7.5t7 17.5q0 11 -7 18.5t-18 7.5q-10 0 -18 -7.5t-8 -18.5q0 -10 8 -17.5t18 -7.5z" />
    <glyph glyph-name="uni05AA" unicode="&#x5aa;" 
d="M117 -215l-26 -2v37q-12 3 -20.5 9.5t-13.5 14.5t-6 16t-1 18q0 6 0.5 17.5t1.5 17.5l26 2q-1 -7 -1.5 -17.5t-0.5 -15.5q0 -19 7.5 -28.5t21.5 -9.5q28 0 28 37v15t-2 17l26 2q1 -6 1.5 -17t0.5 -17q0 -11 -2 -19.5t-6 -17.5q-7 -18 -34 -24v-35z" />
    <glyph glyph-name="uni05AB" unicode="&#x5ab;" 
d="M114 658l-64 63l64 64l23 -15l-50 -49l50 -49z" />
    <glyph glyph-name="uni05AC" unicode="&#x5ac;" 
d="M50 670l1 27h65v62l27 1v-90h-93z" />
    <glyph glyph-name="uni05AD" unicode="&#x5ad;" 
d="M113 -189l-2 -28q-18 5 -30 13t-20 18q-9 12 -10.5 42t0.5 58l27 2q0 -11 -0.5 -29t1 -34t4.5 -23q3 -6 11 -10.5t19 -8.5z" />
    <glyph glyph-name="uni05AE" unicode="&#x5ae;" 
d="M81 660q-31 10 -31 45q0 19 11.5 30.5t30.5 11.5q14 0 25.5 -7.5t25.5 -28.5q11 -16 19 -23t17 -7q8 0 13.5 5.5t5.5 16.5q0 16 -17 24l8 21q31 -12 31 -45q0 -19 -11.5 -30.5t-29.5 -11.5q-14 0 -26 7.5t-26 27.5q-13 18 -19.5 24.5t-16.5 6.5q-8 0 -13.5 -5.5
t-5.5 -16.5q0 -17 17 -25z" />
    <glyph glyph-name="uni05AF" unicode="&#x5af;" 
d="M100 670q-21 0 -35.5 14.5t-14.5 35.5t14.5 36t35.5 15t35.5 -15t14.5 -36t-14.5 -35.5t-35.5 -14.5zM100 694q11 0 19 8t8 18q0 11 -8 19.5t-19 8.5q-10 0 -18.5 -8.5t-8.5 -19.5q0 -10 8 -18t19 -8z" />
    <glyph glyph-name="uni05B0" unicode="&#x5b0;" 
d="M50 -94q0 11 4.5 19.5t16.5 8.5q15 0 19 -8.5t4 -19.5q0 -12 -4 -20t-19 -8q-12 0 -16.5 8t-4.5 20zM50 -183q0 11 4.5 19.5t16.5 8.5q15 0 19 -8.5t4 -19.5q0 -12 -4 -20t-19 -8q-12 0 -16.5 8t-4.5 20z" />
    <glyph glyph-name="uni05B1" unicode="&#x5b1;" 
d="M247 -211q-12 0 -16.5 8t-4.5 20q0 11 4.5 19.5t16.5 8.5q15 0 19 -8.5t4 -19.5q0 -12 -4 -20t-19 -8zM118 -211q-13 0 -17 8t-4 20q0 11 4 19.5t17 8.5q15 0 18.5 -8.5t3.5 -19.5q0 -12 -3.5 -20t-18.5 -8zM71 -122q-12 0 -16.5 8t-4.5 20q0 11 4.5 19.5t16.5 8.5
q15 0 19 -8.5t4 -19.5q0 -12 -4 -20t-19 -8zM166 -122q-12 0 -16.5 8t-4.5 20q0 11 4.5 19.5t16.5 8.5q15 0 19 -8.5t4 -19.5q0 -12 -4 -20t-19 -8zM247 -122q-12 0 -16.5 8t-4.5 20q0 11 4.5 19.5t16.5 8.5q15 0 19 -8.5t4 -19.5q0 -12 -4 -20t-19 -8z" />
    <glyph glyph-name="uni05B2" unicode="&#x5b2;" 
d="M50 -107l3 25h123l-3 -25h-123zM232 -211q-12 0 -16.5 8t-4.5 20q0 11 4.5 19.5t16.5 8.5q15 0 19 -8.5t4 -19.5q0 -12 -4 -20t-19 -8zM232 -122q-12 0 -16.5 8t-4.5 20q0 11 4.5 19.5t16.5 8.5q15 0 19 -8.5t4 -19.5q0 -12 -4 -20t-19 -8z" />
    <glyph glyph-name="uni05B3" unicode="&#x5b3;" 
d="M91 -196v90h-41l3 25h105l-3 -25h-39v-87zM213 -211q-12 0 -16.5 8t-4.5 20q0 11 4.5 19.5t16.5 8.5q15 0 19 -8.5t4 -19.5q0 -12 -4 -20t-19 -8zM213 -122q-12 0 -16.5 8t-4.5 20q0 11 4.5 19.5t16.5 8.5q15 0 19 -8.5t4 -19.5q0 -12 -4 -20t-19 -8z" />
    <glyph glyph-name="uni05B4" unicode="&#x5b4;" 
d="M71 -122q-12 0 -16.5 8t-4.5 20q0 11 4.5 19.5t16.5 8.5q15 0 19 -8.5t4 -19.5q0 -12 -4 -20t-19 -8z" />
    <glyph glyph-name="uni05B5" unicode="&#x5b5;" 
d="M157 -122q-13 0 -17 8t-4 20q0 11 4 19.5t17 8.5q15 0 19 -8.5t4 -19.5q0 -12 -4 -20t-19 -8zM70 -122q-12 0 -16 8t-4 20q0 11 4 19.5t16 8.5q15 0 19 -8.5t4 -19.5q0 -12 -4 -20t-19 -8z" />
    <glyph glyph-name="uni05B6" unicode="&#x5b6;" 
d="M166 -122q-12 0 -16.5 8t-4.5 20q0 11 4.5 19.5t16.5 8.5q15 0 19 -8.5t4 -19.5q0 -12 -4 -20t-19 -8zM118 -211q-12 0 -16.5 8t-4.5 20q0 11 4.5 19.5t16.5 8.5q15 0 19 -8.5t4 -19.5q0 -12 -4 -20t-19 -8zM71 -122q-12 0 -16.5 8t-4.5 20q0 11 4.5 19.5t16.5 8.5
q15 0 19 -8.5t4 -19.5q0 -12 -4 -20t-19 -8z" />
    <glyph glyph-name="uni05B7" unicode="&#x5b7;" 
d="M50 -107l3 25h105l-3 -25h-105z" />
    <glyph glyph-name="uni05B8" unicode="&#x5b8;" 
d="M91 -196v90h-41l3 25h105l-3 -25h-39v-87z" />
    <glyph glyph-name="uni05B9" unicode="&#x5b9;" 
d="M71 660q-12 0 -16.5 8.5t-4.5 19.5t4.5 19.5t16.5 8.5q15 0 19 -8.5t4 -19.5t-4 -19.5t-19 -8.5z" />
    <glyph glyph-name="uni05BA" unicode="&#x5ba;" 
d="M71 660q-12 0 -16.5 8.5t-4.5 19.5t4.5 19.5t16.5 8.5q15 0 19 -8.5t4 -19.5t-4 -19.5t-19 -8.5z" />
    <glyph glyph-name="uni05BB" unicode="&#x5bb;" 
d="M187 -211q-13 0 -17 8t-4 20q0 11 4 19.5t17 8.5q15 0 19 -8.5t4 -19.5q0 -12 -4 -20t-19 -8zM71 -122q-12 0 -16.5 8t-4.5 20q0 11 4.5 19.5t16.5 8.5q15 0 19 -8.5t4 -19.5q0 -12 -4 -20t-19 -8zM129 -167q-12 0 -16.5 8.5t-4.5 19.5t4.5 19.5t16.5 8.5q15 0 19 -8.5
t4 -19.5t-4 -19.5t-19 -8.5z" />
    <glyph glyph-name="uni05BC" unicode="&#x5bc;" 
d="M50 300q0 11 4.5 19.5t16.5 8.5q15 0 19 -8.5t4 -19.5t-4 -19.5t-19 -8.5q-13 0 -17 8.5t-4 19.5z" />
    <glyph glyph-name="uni05BD" unicode="&#x5bd;" 
d="M50 -211v142l25 3v-142z" />
    <glyph glyph-name="uni05BE" unicode="&#x5be;" horiz-adv-x="310" 
d="M25 564v28h260v-28h-260z" />
    <glyph glyph-name="uni05BF" unicode="&#x5bf;" 
d="M50 685l3 25h161l-3 -25h-161z" />
    <glyph glyph-name="uni05C0" unicode="&#x5c0;" horiz-adv-x="558" 
d="M265 673h28v-754h-28v754z" />
    <glyph glyph-name="uni05C1" unicode="&#x5c1;" 
d="M71 660q-12 0 -16.5 8.5t-4.5 19.5t4.5 19.5t16.5 8.5q15 0 19 -8.5t4 -19.5t-4 -19.5t-19 -8.5z" />
    <glyph glyph-name="uni05C2" unicode="&#x5c2;" 
d="M71 660q-12 0 -16.5 8.5t-4.5 19.5t4.5 19.5t16.5 8.5q15 0 19 -8.5t4 -19.5t-4 -19.5t-19 -8.5z" />
    <glyph glyph-name="uni05C3" unicode="&#x5c3;" horiz-adv-x="224" 
d="M110 433q-11 0 -20 8.5t-9 31.5t9 30.5t20 7.5q12 0 20.5 -7.5t8.5 -30.5t-8.5 -31.5t-20.5 -8.5zM110 -5q-11 0 -20 8.5t-9 31.5t9 30.5t20 7.5q12 0 20.5 -7.5t8.5 -30.5t-8.5 -31.5t-20.5 -8.5z" />
    <glyph glyph-name="uni05C4" unicode="&#x5c4;" 
d="M71 660q-12 0 -16.5 8.5t-4.5 19.5t4.5 19.5t16.5 8.5q15 0 19 -8.5t4 -19.5t-4 -19.5t-19 -8.5z" />
    <glyph glyph-name="uni05C5" unicode="&#x5c5;" 
d="M71 -122q-12 0 -16.5 8t-4.5 20q0 11 4.5 19.5t16.5 8.5q15 0 19 -8.5t4 -19.5q0 -12 -4 -20t-19 -8z" />
    <glyph glyph-name="uni05C6" unicode="&#x5c6;" horiz-adv-x="329" 
d="M147 0q-22 0 -37.5 8.5t-24 28.5t-8.5 55v431q0 25 7 40t22 22t38 7h43q11 0 16.5 8.5t5.5 26.5v20h13q2 -11 3.5 -23t2.5 -22.5t1 -16.5q0 -10 -4 -15.5t-15 -5.5h-66q-20 0 -31 -10t-11 -38v-430q0 -21 5 -34t17.5 -18.5t34.5 -5.5h130l3 -28h-145z" />
    <glyph glyph-name="uni05C7" unicode="&#x5c7;" 
d="M83 -161v54h-33l3 25h88l-3 -25h-30v-51z" />
    <glyph glyph-name="uni05D0" unicode="&#x5d0;" horiz-adv-x="579" 
d="M499 -3q0 6 -1.5 10.5t-4 9.5t-7.5 11l-409 559q-7 11 -11 19t-4 15q0 6 2 12.5t4 13.5h13v-5q0 -10 3 -16.5t7 -11.5l399 -547q7 -9 12.5 -18t8.5 -17t3 -15q0 -4 -1.5 -9.5t-3.5 -10.5h-10zM70 0v20h25q6 0 8 3t1 12l-20 190q-4 35 0.5 73.5t18.5 80.5l40 120h27
l-40 -120q-12 -37 -18 -75.5t-2 -73.5l20 -187q2 -21 2 -28t-2 -15h-60zM400 185l-26 33q0 49 5 93t14 82t19 66l44 121h26l-43 -121q-12 -33 -20.5 -68t-13.5 -83t-5 -123zM522 561l-100 12q-11 2 -15 6.5t-4 17.5q0 11 2 23.5t5 26.5h13v-18q0 -19 4 -24t18 -7l72 -8
q5 -1 7 -4t2 -8q0 -4 -1 -8.5t-3 -8.5z" />
    <glyph glyph-name="uni05D1" unicode="&#x5d1;" horiz-adv-x="496" 
d="M46 0l3 28h303q3 7 6 26t5 40.5t2 35.5v386q0 28 -11 38t-31 10h-254q-11 0 -15 5.5t-4 15.5q0 6 1 16.5t2.5 22.5t3.5 23h13v-20q0 -18 5.5 -26.5t16.5 -8.5h233q35 0 51 -16t16 -53v-380q0 -16 -2.5 -41t-5.5 -46t-5 -28h59v-28h-392z" />
    <glyph glyph-name="uni05D2" unicode="&#x5d2;" horiz-adv-x="275" 
d="M219 -3q-3 12 -7.5 31t-8.5 38t-8 31l-46 -82q-4 -7 -7.5 -11t-10.5 -4h-106l3 28h79q16 0 33 20t29.5 48t12.5 50v404q0 8 -2 11t-9 3h-70q-10 0 -14.5 4.5t-4.5 13.5q0 12 1.5 25t3 23.5t2.5 16.5h13v-20q0 -18 5.5 -26.5t16.5 -8.5h66q11 0 15 -5.5t4 -15.5v-395
q0 -9 0.5 -18t2.5 -18t4 -19l27 -111q-3 -4 -10 -8.5t-11 -4.5h-3z" />
    <glyph glyph-name="uni05D3" unicode="&#x5d3;" horiz-adv-x="455" 
d="M320 -6v450q0 29 0.5 49.5t1 37t0.5 32.5v1h-278q-10 0 -14.5 4.5t-4.5 13.5q0 12 1.5 25t3 23.5t2.5 16.5h13v-20q0 -18 5.5 -26.5t16.5 -8.5h316q5 0 7.5 -2t2.5 -7v-19h-48l5 -556q-4 -4 -10.5 -7.5t-14.5 -6.5h-5z" />
    <glyph glyph-name="uni05D4" unicode="&#x5d4;" horiz-adv-x="570" 
d="M443 -6v450v52t0.5 39.5t0.5 27.5v1h-353q-11 0 -15 5.5t-4 15.5q0 6 1 16.5t2.5 22.5t3.5 23h13v-20q0 -18 5.5 -26.5t16.5 -8.5h359q5 0 7.5 -2t2.5 -7v-16l-16 -3l6 -556q-4 -4 -10.5 -7.5t-14.5 -6.5h-5zM87 -6v320q0 29 3.5 42.5t10.5 18.5l9 7l4 -4v-370
q-4 -4 -9 -7.5t-13 -6.5h-5z" />
    <glyph glyph-name="uni05D5" unicode="&#x5d5;" horiz-adv-x="272" 
d="M155 -6v556q0 8 -2.5 11t-9.5 3h-72q-10 0 -14.5 4.5t-4.5 13.5q0 12 1.5 25t3 23.5t2.5 16.5h13v-20q0 -18 5.5 -26.5t16.5 -8.5h69q11 0 15 -5.5t4 -15.5l3 -563q-4 -4 -10.5 -7.5t-14.5 -6.5h-5z" />
    <glyph glyph-name="uni05D6" unicode="&#x5d6;" horiz-adv-x="247" 
d="M123 -6q-5 34 -10 74.5t-9 84t-6.5 87.5t-2.5 85t2.5 84.5t8 87t13.5 84.5h27q-8 -40 -13.5 -79.5t-8 -80.5t-2.5 -86q0 -67 5 -130t12.5 -114t13.5 -83q-4 -4 -10.5 -7.5t-14.5 -6.5h-5zM191 560l-109 13q-11 2 -15 7t-4 15q0 13 2 25.5t5 26.5h13v-18q0 -19 4 -24
t18 -7l81 -9q5 -1 7 -3.5t2 -7.5q0 -6 -1 -10t-3 -8z" />
    <glyph glyph-name="uni05D7" unicode="&#x5d7;" horiz-adv-x="589" 
d="M462 -6v450v50.5t0.5 38t1.5 30.5v1h-373q-11 0 -15 5.5t-4 15.5q0 6 1 16.5t2.5 22.5t3.5 23h13v-20q0 -18 5.5 -26.5t16.5 -8.5h378q5 0 7.5 -2t2.5 -7v-16l-15 -3l5 -556q-4 -4 -10.5 -7.5t-14.5 -6.5h-5zM101 -6v450q0 29 0.5 50.5t1 38t0.5 30.5v9h23l5 -564
q-4 -4 -10.5 -7.5t-14.5 -6.5h-5z" />
    <glyph glyph-name="uni05D8" unicode="&#x5d8;" horiz-adv-x="576" 
d="M117 0q-5 36 -11.5 89.5t-11 115.5t-4.5 121q0 63 5 115t10.5 88.5t8.5 51.5h27q-3 -15 -8.5 -45.5t-10.5 -78t-5 -115.5q0 -55 3.5 -112t10 -109t13.5 -93h228q20 0 29 8.5t22 33.5q16 32 33 77.5t28.5 105t11.5 134.5q0 48 -7.5 91t-29 70t-64.5 27q-31 0 -52 -17
t-31.5 -51t-10.5 -85h-28q0 92 32 137t96 45q43 0 70 -24t40 -73t13 -125q0 -33 -4.5 -82.5t-20 -111.5t-48.5 -133q-10 -21 -19.5 -33t-25 -17t-44.5 -5h-245zM182 561l-100 12q-11 2 -15 7t-4 15q0 13 2 25.5t5 26.5h13v-18q0 -19 4 -24t18 -7l72 -8q5 -1 7 -3.5t2 -7.5
q0 -6 -1 -10t-3 -8z" />
    <glyph glyph-name="uni05D9" unicode="&#x5d9;" horiz-adv-x="290" 
d="M140 353l-18 15l48 70q17 25 24 52.5t7 55.5q0 10 -2 14t-11 4h-117q-11 0 -15 5.5t-4 15.5q0 6 1 16.5t2.5 22.5t3.5 23h13v-20q0 -18 5.5 -26.5t16.5 -8.5h108q14 0 20 -6.5t6 -29.5q0 -20 -5 -43.5t-13.5 -46.5t-21.5 -42z" />
    <glyph glyph-name="uni05DA" unicode="&#x5da;" horiz-adv-x="463" 
d="M341 -240v685q0 43 3.5 72t5.5 46v1h-307q-11 0 -15 5.5t-4 15.5q0 6 1 16.5t2.5 22.5t3.5 23h13v-20q0 -18 5.5 -26.5t16.5 -8.5h300q5 0 7.5 -2t2.5 -7v-19q-1 -12 -3.5 -30t-4 -40t-1.5 -49l4 -671q-4 -4 -10.5 -7.5t-14.5 -6.5h-5z" />
    <glyph glyph-name="uni05DB" unicode="&#x5db;" horiz-adv-x="508" 
d="M60 0l3 28h284q34 0 45.5 13.5t11.5 44.5v423q0 19 -6.5 31t-17 18t-23.5 6h-274q-11 0 -15 5.5t-4 15.5q0 6 1 16.5t2.5 22.5t3.5 23h13v-20q0 -18 5.5 -26.5t16.5 -8.5h252q35 0 54 -19.5t19 -56.5v-424q0 -35 -8.5 -55t-24 -28.5t-37.5 -8.5h-301z" />
    <glyph glyph-name="uni05DC" unicode="&#x5dc;" horiz-adv-x="483" 
d="M192 -7q-7 0 -11 4t-4 10v73q0 11 6 23t17 25l175 194q6 7 8 11.5t2 11.5v200q0 9 -5 14t-14 5h-318q-7 0 -15.5 3t-8.5 13q0 7 5 28t12.5 49.5t15.5 57t14 50.5t7 29q1 4 0 6.5t-6 3.5l-20 3q-8 2 -11.5 5.5t-3.5 13.5q0 11 3 26t4 21h13v-11q0 -9 4.5 -18t17.5 -11
l18 -2q9 -1 12 -8t-2 -25l-50 -185q-3 -11 1.5 -16t14.5 -5h304q16 0 23.5 -6.5t10 -16t2.5 -18.5l-1 -210q0 -9 -5 -18.5t-14 -20.5l-172 -191q-8 -9 -11 -15t-3 -16v-73q0 -6 -3.5 -10t-11.5 -4z" />
    <glyph glyph-name="uni05DD" unicode="&#x5dd;" horiz-adv-x="560" 
d="M103 0q-22 0 -29 8.5t-7 25.5v335q0 28 4 64.5t15 72t30 57.5v8h30v-7q-19 -15 -30 -50t-16.5 -75t-5.5 -70v-341h295q23 0 35 5.5t17 18.5t5 34v423q0 29 -13.5 42t-33.5 13h-313q-11 0 -15 5.5t-4 15.5q0 6 1 16.5t2.5 22.5t3.5 23h13v-20q0 -18 5.5 -26.5t16.5 -8.5
h291q24 0 40 -9t24.5 -25.5t8.5 -41.5v-424q0 -52 -18.5 -72t-51.5 -20h-300z" />
    <glyph glyph-name="uni05DE" unicode="&#x5de;" horiz-adv-x="583" 
d="M59 0l22 280q5 63 19.5 107.5t29.5 72.5t21 41q7 14 8.5 22.5t1.5 23.5q0 17 -29 17h-56q-11 0 -15 5.5t-4 15.5q0 9 2 27.5t5 34.5h13v-20q0 -18 5.5 -26.5t16.5 -8.5h64q11 0 15 -5.5t4 -15.5v-44l2 -1l82 72h17q79 0 130.5 -35.5t77 -108.5t25.5 -187q0 -17 -1 -44.5
t-3 -62t-6 -75.5t-11 -85h-251l3 28h210q9 0 11 3t4 16q5 32 11 88t6 116q0 89 -14.5 149t-39.5 96t-55.5 52t-63.5 16q-43 0 -79.5 -23.5t-64 -63.5t-44 -88t-20.5 -98l-22 -291h-27z" />
    <glyph glyph-name="uni05DF" unicode="&#x5df;" horiz-adv-x="245" 
d="M123 -240v685q0 43 3.5 72t5.5 46v1h-86q-11 0 -15 5.5t-4 15.5q0 6 1 16.5t2.5 22.5t3.5 23h13v-20q0 -18 5.5 -26.5t16.5 -8.5h79q5 0 7.5 -2t2.5 -7v-19q-1 -12 -3.5 -30t-4 -40t-1.5 -49l4 -671q-4 -4 -9.5 -7.5t-13.5 -6.5h-7z" />
    <glyph glyph-name="uni05E0" unicode="&#x5e0;" horiz-adv-x="329" 
d="M37 0l3 28h128q23 0 35 5.5t17 18.5t5 34v430q0 28 -11 38t-31 10h-64q-11 0 -15 5.5t-4 15.5q0 6 1 16.5t2.5 22.5t3.5 23h13v-20q0 -18 5.5 -26.5t16.5 -8.5h43q24 0 38.5 -7t21.5 -22t7 -40v-431q0 -35 -8.5 -55t-24 -28.5t-37.5 -8.5h-145z" />
    <glyph glyph-name="uni05E1" unicode="&#x5e1;" horiz-adv-x="563" 
d="M287 -9q-70 0 -119.5 35.5t-75 100.5t-25.5 151q0 72 16 149t40 134v8h22v-5q-9 -29 -21 -73.5t-21 -97t-9 -106.5q0 -72 19.5 -133t63 -98t114.5 -37q50 0 90.5 27.5t64 89t23.5 161.5q0 97 -14.5 155.5t-46 85t-83.5 26.5h-229q-11 0 -15 5.5t-4 15.5q0 9 2 27.5
t5 34.5h13v-20q0 -18 5.5 -26.5t16.5 -8.5h202q40 0 68.5 -8.5t48 -29.5t31.5 -59q11 -34 19 -89.5t8 -112.5q0 -26 -3.5 -64.5t-14.5 -79.5t-34 -77t-61 -58.5t-96 -22.5z" />
    <glyph glyph-name="uni05E2" unicode="&#x5e2;" horiz-adv-x="525" 
d="M42 -47v32l191 124q42 27 66.5 51.5t39.5 54.5t27.5 72t29.5 105l46 172l-80 11q-12 2 -17 6t-5 17q0 14 3 29.5t4 19.5h13v-12q0 -18 2 -25.5t18 -9.5l80 -9q6 -1 10.5 -3.5t2.5 -9.5l-82 -307q-3 -13 -9.5 -29.5t-16 -35t-22 -37t-28 -35t-34.5 -28.5l-236 -153h-3z
M233 89l-103 267q-15 39 -20 77t-2 75t10 73l24 -2q-2 -15 -6 -47.5t-1 -76t22 -93.5l99 -260zM191 561l-110 13q-11 2 -15 7t-4 15q0 13 2 25t5 26h13v-18q0 -18 4 -23t18 -7l82 -9q5 -1 7 -3.5t2 -7.5q0 -6 -1 -10t-3 -8z" />
    <glyph glyph-name="uni05E3" unicode="&#x5e3;" horiz-adv-x="518" 
d="M411 -240v749q0 29 -13.5 42t-33.5 13h-308q-11 0 -15 5.5t-4 15.5q0 9 2 27.5t5 34.5h13v-20q0 -18 5.5 -26.5t16.5 -8.5h286q35 0 53.5 -19.5t18.5 -56.5l4 -742q-4 -4 -9.5 -7.5t-13.5 -6.5h-7zM172 273q-13 17 -24 22.5t-25 5.5q-16 0 -28 -5.5t-26 -17.5h-24v8
q0 38 7 88t21 100.5t35 88.5v10h23v-9q-5 -10 -14.5 -36t-19.5 -61.5t-17 -75.5t-7 -78v-7q15 11 28 17t30 6q14 0 25 -4.5t17.5 -12.5t6.5 -19q0 -5 -1.5 -8.5t-6.5 -11.5z" />
    <glyph glyph-name="uni05E4" unicode="&#x5e4;" horiz-adv-x="542" 
d="M62 0l3 28h316q34 0 45.5 13.5t11.5 44.5v423q0 19 -6.5 31t-17 18t-23.5 6h-308q-11 0 -15 5.5t-4 15.5q0 9 2 27.5t5 34.5h13v-20q0 -18 5.5 -26.5t16.5 -8.5h286q35 0 54 -19.5t19 -56.5v-424q0 -35 -8.5 -55t-24 -28.5t-37.5 -8.5h-333zM199 283q-13 17 -24 22.5
t-25 5.5q-16 0 -28 -5.5t-26 -17.5h-24v5q0 37 7 85.5t21 97.5t35 87v10h23v-9q-6 -14 -20 -52t-26 -88t-12 -101v-7q15 11 28 17t30 6q14 0 25 -4.5t17.5 -12.5t6.5 -19q0 -5 -1.5 -8.5t-6.5 -11.5z" />
    <glyph glyph-name="uni05E5" unicode="&#x5e5;" horiz-adv-x="443" 
d="M91 -240v648q0 35 2 64.5t6.5 55t10.5 47.5v4h26q-7 -27 -11 -52t-6 -51.5t-2 -60.5l1 -213q14 51 33.5 94t45 82.5t57.5 79.5t71 86l29 34l24 -6l-26 -30q-61 -71 -105.5 -133.5t-73 -122.5t-41.5 -122.5t-13 -134.5l2 -255q-4 -4 -10.5 -7.5t-14.5 -6.5h-5zM191 561
l-110 13q-11 2 -15 7t-4 15q0 13 2 25t5 26h13v-18q0 -18 4 -23t18 -7l82 -9q5 -1 7 -3.5t2 -7.5q0 -6 -1 -10t-3 -8zM423 561l-110 13q-11 2 -15 7t-4 15q0 13 2 25t5 26h13v-18q0 -18 4 -23t18 -7l82 -9q5 -1 7 -3.5t2 -7.5q0 -6 -1 -10t-3 -8z" />
    <glyph glyph-name="uni05E6" unicode="&#x5e6;" horiz-adv-x="504" 
d="M40 0l3 28h334q6 0 8.5 4t4.5 9q3 8 4 17t1 17q0 34 -10.5 49t-27.5 34l-156 166q-29 31 -37.5 54t-8.5 58v114q0 8 -2.5 11t-9.5 3h-72q-11 0 -15 5.5t-4 15.5q0 9 2 27.5t5 34.5h13v-20q0 -18 5.5 -26.5t16.5 -8.5h69q11 0 15 -5.5t4 -15.5v-131q0 -29 4.5 -46t17 -33
t37.5 -43l143 -153q15 -16 22.5 -30.5t9.5 -27.5t2 -25q0 -17 -2.5 -31.5t-7 -27t-9.5 -23.5h-359zM309 241l-24 23q0 41 10.5 80t25.5 75t27 64l43 97h26l-42 -97q-14 -33 -29.5 -68t-26 -77t-10.5 -97zM455 561l-100 12q-11 2 -15 6.5t-4 17.5q0 7 1 15t2.5 17t3.5 18h13
v-18q0 -19 4 -24t18 -7l72 -8q5 -1 7 -4t2 -8q0 -4 -1 -8.5t-3 -8.5z" />
    <glyph glyph-name="uni05E7" unicode="&#x5e7;" horiz-adv-x="550" 
d="M292 -7q-7 0 -11 4t-4 10v73q0 11 5.5 23.5t17.5 24.5l145 140q5 4 7 7.5t2.5 7.5t0.5 8v254q0 9 -5 14t-14 5h-330q-11 0 -15 5.5t-4 15.5q0 9 2 27.5t5 34.5h13v-20q0 -18 5.5 -26.5t16.5 -8.5h318q24 0 29.5 -13.5t5.5 -27.5v-254q0 -12 -2 -20.5t-6 -15t-11 -13.5
l-142 -137q-9 -8 -11.5 -14.5t-2.5 -16.5v-73q0 -6 -3.5 -10t-11.5 -4zM102 -240v554q0 29 3.5 42.5t10.5 18.5l9 7l4 -4l3 -604q-4 -4 -10.5 -7.5t-14.5 -6.5h-5z" />
    <glyph glyph-name="uni05E8" unicode="&#x5e8;" horiz-adv-x="454" 
d="M347 -6v515q0 29 -13.5 42t-33.5 13h-257q-11 0 -15 5.5t-4 15.5q0 9 2 27.5t5 34.5h13v-20q0 -18 5.5 -26.5t16.5 -8.5h235q24 0 40 -9t24 -25.5t8 -41.5l4 -508q-4 -4 -10.5 -7.5t-14.5 -6.5h-5z" />
    <glyph glyph-name="uni05E9" unicode="&#x5e9;" horiz-adv-x="687" 
d="M114 0q-4 27 -8.5 64.5t-9 81t-7 88t-2.5 84.5q0 59 5 106t12.5 83.5t13.5 61.5l-37 4q-7 1 -11.5 3.5t-6 7t-1.5 11.5q0 13 2 25.5t5 26.5h13v-18q0 -19 4 -24t18 -7l72 -8q5 -1 7 -3.5t2 -7.5q0 -6 -1 -10t-3 -8l-37 4q-7 -28 -18.5 -82t-11.5 -149q0 -49 3.5 -104.5
t10 -108t13.5 -93.5h139l76 542l-37 4q-11 2 -15 7t-4 15q0 13 2 25t5 26h13v-18q0 -18 4 -23t18 -7l82 -9q5 -1 7 -3.5t2 -7.5q0 -6 -1 -10t-3 -8l-46 5l-76 -538h86q20 0 38.5 7t34 20.5t29.5 34t25 46.5t20 57.5t15 68.5l51 302l-85 10q-11 2 -15 7t-4 15q0 13 2 25t5 26
h13v-18q0 -18 4 -23t18 -7l82 -9q3 0 5 -1.5t3 -4t1 -5.5l-49 -308q-3 -17 -8.5 -43t-15 -56.5t-24 -61t-35 -55.5t-48.5 -40t-65 -15h-276z" />
    <glyph glyph-name="uni05EA" unicode="&#x5ea;" horiz-adv-x="558" 
d="M451 -6v515q0 29 -13.5 42t-33.5 13h-319q-11 0 -15 5.5t-4 15.5q0 9 2 27.5t5 34.5h13v-20q0 -18 5.5 -26.5t16.5 -8.5h297q24 0 40 -9t24 -25.5t8 -41.5l4 -508q-4 -4 -10.5 -7.5t-14.5 -6.5h-5zM37 0l3 28h80q4 0 5 3.5t1 7.5l-15 253q-2 46 0.5 89.5t10 88.5t17.5 93
v7h22v-6q-8 -37 -13.5 -71.5t-8.5 -67t-3 -62.5t2 -57q3 -36 6 -74.5t5.5 -75t4 -67.5t1.5 -52q0 -11 -1.5 -19t-4.5 -18h-112z" />
    <glyph glyph-name="uni05F0" unicode="&#x5f0;" horiz-adv-x="544" 
d="M429 -6v556q0 8 -2.5 11t-9.5 3h-74q-10 0 -14.5 4.5t-4.5 13.5q0 12 1.5 25t3 23.5t2.5 16.5h13v-20q0 -18 5.5 -26.5t16.5 -8.5h69q11 0 15 -5.5t4 -15.5l3 -563q-4 -4 -9.5 -7.5t-13.5 -6.5h-5zM157 -6v556q0 8 -2.5 11t-9.5 3h-74q-10 0 -14.5 4.5t-4.5 13.5
q0 12 1.5 25t3 23.5t2.5 16.5h13v-20q0 -18 5.5 -26.5t16.5 -8.5h69q11 0 15 -5.5t4 -15.5l3 -563q-4 -4 -9.5 -7.5t-13.5 -6.5h-5z" />
    <glyph glyph-name="uni05F1" unicode="&#x5f1;" horiz-adv-x="562" 
d="M445 -6v556q0 8 -2.5 11t-9.5 3h-72q-10 0 -14.5 4.5t-4.5 13.5q0 12 1.5 25t3 23.5t2.5 16.5h13v-20q0 -18 5.5 -26.5t16.5 -8.5h69q11 0 15 -5.5t4 -15.5l3 -563q-4 -4 -10.5 -7.5t-14.5 -6.5h-5zM140 353l-18 15l48 70q17 25 24 52.5t7 55.5q0 10 -2 14t-11 4h-117
q-11 0 -15 5.5t-4 15.5q0 6 1 16.5t2.5 22.5t3.5 23h13v-20q0 -18 5.5 -26.5t16.5 -8.5h108q14 0 20 -6.5t6 -29.5q0 -20 -5 -43.5t-13.5 -46.5t-21.5 -42z" />
    <glyph glyph-name="uni05F2" unicode="&#x5f2;" horiz-adv-x="580" 
d="M430 353l-18 15l48 70q17 25 24 52.5t7 55.5q0 10 -2 14t-11 4h-117q-11 0 -15 5.5t-4 15.5q0 6 1 16.5t2.5 22.5t3.5 23h13v-20q0 -18 5.5 -26.5t16.5 -8.5h108q14 0 20 -6.5t6 -29.5q0 -20 -5 -43.5t-13.5 -46.5t-21.5 -42zM140 353l-18 15l48 70q17 25 24 52.5t7 55.5
q0 10 -2 14t-11 4h-117q-11 0 -15 5.5t-4 15.5q0 6 1 16.5t2.5 22.5t3.5 23h13v-20q0 -18 5.5 -26.5t16.5 -8.5h108q14 0 20 -6.5t6 -29.5q0 -20 -5 -43.5t-13.5 -46.5t-21.5 -42z" />
    <glyph glyph-name="uni05F3" unicode="&#x5f3;" horiz-adv-x="164" 
d="M42 454v22q26 19 36.5 32t10.5 31q0 13 -8.5 20.5t-19.5 14t-19.5 15.5t-8.5 24q0 17 9.5 25.5t23.5 8.5q20 0 36.5 -17t16.5 -56q0 -42 -17.5 -69t-59.5 -51z" />
    <glyph glyph-name="uni05F4" unicode="&#x5f4;" horiz-adv-x="310" 
d="M42 454v22q26 19 36.5 32t10.5 31q0 13 -8.5 20.5t-19.5 14t-19.5 15.5t-8.5 24q0 17 9.5 25.5t23.5 8.5q20 0 36.5 -17t16.5 -56q0 -42 -17.5 -69t-59.5 -51zM188 454v22q26 19 36.5 32t10.5 31q0 13 -8.5 20.5t-19.5 14t-19.5 15.5t-8.5 24q0 17 9.5 25.5t23.5 8.5
q20 0 36.5 -17t16.5 -56q0 -42 -17.5 -69t-59.5 -51z" />
    <glyph glyph-name="uni200C" unicode="&#x200c;" 
d="M18 679v-724h-36v724h36z" />
    <glyph glyph-name="uni200D" unicode="&#x200d;" 
d="M18 -45h-36v578l-65 -66l-24 24l84 82l-84 82l24 24l83 -83l83 83l24 -24l-84 -82l84 -82l-24 -24l-65 66v-578z" />
    <glyph glyph-name="uni200E" unicode="&#x200e;" 
d="M210 574l-106 -104l-24 24l67 63h-130v-602h-35v637h165l-67 63l24 24z" />
    <glyph glyph-name="uni200F" unicode="&#x200f;" 
d="M17 -45h-35v602h-129l66 -63l-23 -24l-106 104l106 105l23 -24l-66 -63h164v-637z" />
    <glyph glyph-name="uni2010" unicode="&#x2010;" horiz-adv-x="310" 
d="M25 259v28h260v-28h-260z" />
    <glyph glyph-name="uni20AA" unicode="&#x20aa;" horiz-adv-x="734" 
d="M294 0q-6 40 -13.5 80.5t-13 84t-5.5 93.5q0 34 2.5 65.5t6 56t5.5 37.5h27q-8 -46 -11.5 -87t-2 -84.5t9 -96t22.5 -121.5h135q21 0 41 8.5t38.5 25.5t34.5 41.5t29 56.5t22 70.5t13 82.5l21 256l-87 11q-10 2 -14.5 5.5t-4.5 16.5q0 14 3 27.5t4 17.5h13v-5
q0 -18 5.5 -25.5t16.5 -9.5l75 -9q5 0 9 -2t6 -5.5t1 -10.5l-21 -246q-3 -37 -11 -81.5t-23 -89t-38 -81.5t-56.5 -59.5t-79.5 -22.5h-159zM101 -6v450q0 29 0.5 50.5t1.5 38t1 30.5v1h-13q-11 0 -15 5.5t-4 15.5q0 9 2 27.5t5 34.5h13v-20q0 -18 5.5 -26.5t16.5 -8.5h348
q5 0 7.5 -2t2.5 -7v-16l-15 -3l5 -356q-4 -4 -10.5 -7.5t-14.5 -6.5h-5v250v50.5t0.5 38t1.5 30.5v1h-308l5 -556q-4 -4 -10.5 -7.5t-14.5 -6.5h-5z" />
    <glyph glyph-name="uni25CC" unicode="&#x25cc;" horiz-adv-x="594" 
d="M480 448q0 -26 -25 -26q-27 0 -27 26q0 27 27 27q25 0 25 -27zM408 496q0 -26 -25 -26q-28 0 -28 26q0 27 28 27q25 0 25 -27zM529 376q0 -27 -27 -27q-26 0 -26 27q0 26 27 26q26 0 26 -26zM546 291q0 -26 -25 -26q-27 0 -27 26t27 26q25 0 25 -26zM323 514
q0 -27 -26 -27t-26 27q0 26 26 26t26 -26zM239 496q0 -26 -27 -26q-26 0 -26 26q0 27 26 27q27 0 27 -27zM529 206q0 -26 -27 -26q-26 0 -26 26q0 27 26 27q27 0 27 -27zM167 448q0 -26 -27 -26q-26 0 -26 25q0 28 26 28q27 0 27 -27zM480 133q0 -26 -25 -26q-27 0 -27 26
q0 27 27 27q25 0 25 -27zM408 85q0 -25 -25 -25q-28 0 -28 25q0 27 28 27q25 0 25 -27zM118 376q0 -27 -25 -27q-28 0 -28 27q0 26 27 26q26 0 26 -26zM101 291q0 -26 -26 -26q-27 0 -27 26t27 26q26 0 26 -26zM323 69q0 -27 -26 -27t-26 27q0 26 26 26t26 -26zM118 206
q0 -26 -26 -26q-27 0 -27 26q0 27 27 27q26 0 26 -27zM239 87q0 -27 -27 -27q-26 0 -26 25q0 27 26 27q27 0 27 -25zM167 133q0 -26 -27 -26q-26 0 -26 26q0 27 26 27q27 0 27 -27z" />
    <glyph glyph-name="uniFB1D" unicode="&#xfb1d;" horiz-adv-x="290" 
d="M140 353l-18 15l48 70q17 25 24 52.5t7 55.5q0 10 -2 14t-11 4h-117q-11 0 -15 5.5t-4 15.5q0 6 1 16.5t2.5 22.5t3.5 23h13v-20q0 -18 5.5 -26.5t16.5 -8.5h108q14 0 20 -6.5t6 -29.5q0 -20 -5 -43.5t-13.5 -46.5t-21.5 -42zM163 -122q-12 0 -16.5 8t-4.5 20
q0 11 4.5 19.5t16.5 8.5q15 0 19 -8.5t4 -19.5q0 -12 -4 -20t-19 -8z" />
    <glyph glyph-name="uniFB1E" unicode="&#xfb1e;" 
d="M261 759q0 -49 -27.5 -79t-77.5 -30t-78 28.5t-28 77.5l21 3q0 -44 22.5 -66t62.5 -22q41 0 63.5 25t22.5 60z" />
    <glyph glyph-name="uniFB1F" unicode="&#xfb1f;" horiz-adv-x="580" 
d="M430 353l-18 15l48 70q17 25 24 52.5t7 55.5q0 10 -2 14t-11 4h-117q-11 0 -15 5.5t-4 15.5q0 6 1 16.5t2.5 22.5t3.5 23h13v-20q0 -18 5.5 -26.5t16.5 -8.5h108q14 0 20 -6.5t6 -29.5q0 -20 -5 -43.5t-13.5 -46.5t-21.5 -42zM140 353l-18 15l48 70q17 25 24 52.5t7 55.5
q0 10 -2 14t-11 4h-117q-11 0 -15 5.5t-4 15.5q0 6 1 16.5t2.5 22.5t3.5 23h13v-20q0 -18 5.5 -26.5t16.5 -8.5h108q14 0 20 -6.5t6 -29.5q0 -20 -5 -43.5t-13.5 -46.5t-21.5 -42zM109 -107l3 25h105l-3 -25h-105z" />
    <glyph glyph-name="uniFB20" unicode="&#xfb20;" horiz-adv-x="533" 
d="M37 0l3 28h199q30 0 56.5 16t47.5 46t36 73.5t24 98.5l48 307l-84 11q-10 2 -14.5 5.5t-4.5 16.5q0 9 1.5 18.5t3.5 17t2 9.5h13v-5q0 -18 5.5 -25.5t16.5 -9.5l80 -10q4 0 6.5 -2t4 -4.5t0.5 -5.5l-49 -314q-3 -20 -10.5 -53.5t-20.5 -71t-34.5 -71t-53.5 -54.5t-77 -21
h-199zM192 10l-74 325q-9 40 -12 83t0 85t10 78l24 -2q-2 -15 -5.5 -52t-2 -85.5t12.5 -100.5l70 -318zM190 566l-112 14q-10 2 -14.5 5.5t-4.5 16.5q0 9 1.5 18.5t3.5 17t2 9.5h13v-5q0 -18 5.5 -25.5t16.5 -9.5l80 -10q6 -1 8.5 -4.5t2.5 -10.5q0 -4 -0.5 -8.5t-1.5 -7.5z
" />
    <glyph glyph-name="uniFB21" unicode="&#xfb21;" horiz-adv-x="882" 
d="M800 -3q0 6 -0.5 11.5t-3.5 10.5t-9 9l-709 559q-10 8 -13 17.5t-3 16.5q0 6 2.5 12.5t4.5 13.5h13v-9q0 -8 1.5 -14.5t8.5 -11.5l703 -550q11 -9 16 -18.5t5 -20.5q0 -5 -2 -13t-4 -13h-10zM71 0v20h25q6 0 8 3t1 12l-20 190q-4 35 1 73.5t18 80.5l52 157h27l-52 -157
q-12 -37 -18 -74.5t-2 -74.5l20 -187q2 -23 2 -29t-2 -14h-60zM682 131l-26 33q0 36 3 70t8.5 64t12.5 56.5t14 47.5l63 178h26l-62 -178q-11 -33 -20 -67t-14 -81.5t-5 -122.5zM825 561l-100 12q-11 2 -15 7t-4 15q0 13 2 25.5t5 26.5h13v-18q0 -19 4 -24t18 -7l72 -8
q5 -1 7 -3.5t2 -7.5q0 -6 -1 -10t-3 -8z" />
    <glyph glyph-name="uniFB22" unicode="&#xfb22;" horiz-adv-x="755" 
d="M620 -6v450q0 29 0.5 49.5t1 37t0.5 32.5v1h-578q-10 0 -14.5 4.5t-4.5 13.5q0 12 1.5 25t3 23.5t2.5 16.5h13v-20q0 -18 5.5 -26.5t16.5 -8.5h616q5 0 7.5 -2t2.5 -7v-19h-48l5 -556q-4 -4 -10.5 -7.5t-14.5 -6.5h-5z" />
    <glyph glyph-name="uniFB23" unicode="&#xfb23;" horiz-adv-x="870" 
d="M743 -6v450v52t0.5 39.5t0.5 27.5v1h-653q-11 0 -15 5.5t-4 15.5q0 6 1 16.5t2.5 22.5t3.5 23h13v-20q0 -18 5.5 -26.5t16.5 -8.5h659q5 0 7.5 -2t2.5 -7v-16l-16 -3l6 -556q-4 -4 -10.5 -7.5t-14.5 -6.5h-5zM87 -6v320q0 29 3.5 42.5t10.5 18.5l9 7l4 -4v-370
q-4 -4 -9 -7.5t-13 -6.5h-5z" />
    <glyph glyph-name="uniFB24" unicode="&#xfb24;" horiz-adv-x="808" 
d="M60 0l3 28h584q34 0 45.5 13.5t11.5 44.5v423q0 19 -6.5 31t-17 18t-23.5 6h-574q-11 0 -15 5.5t-4 15.5q0 6 1 16.5t2.5 22.5t3.5 23h13v-20q0 -18 5.5 -26.5t16.5 -8.5h552q35 0 54 -19.5t19 -56.5v-424q0 -35 -8.5 -55t-24 -28.5t-37.5 -8.5h-601z" />
    <glyph glyph-name="uniFB25" unicode="&#xfb25;" horiz-adv-x="763" 
d="M472 -7q-7 0 -11 4t-4 10v73q0 11 6 23t17 25l175 194q6 7 8 11.5t2 11.5v200q0 9 -5 14t-14 5h-598q-7 0 -15.5 3t-8.5 13q0 7 5 28t12.5 49.5t15.5 57t14 50.5t7 29q1 4 0 6.5t-6 3.5l-20 3q-8 2 -11.5 5.5t-3.5 13.5q0 11 3 26t4 21h13v-11q0 -9 4.5 -18t17.5 -11
l18 -2q9 -1 12 -8t-2 -25l-50 -185q-3 -11 1.5 -16t14.5 -5h584q16 0 23.5 -6.5t10 -16t2.5 -18.5l-1 -210q0 -9 -5 -18.5t-14 -20.5l-172 -191q-8 -9 -11 -15t-3 -16v-73q0 -6 -3.5 -10t-11.5 -4z" />
    <glyph glyph-name="uniFB26" unicode="&#xfb26;" horiz-adv-x="860" 
d="M103 0q-22 0 -29 8.5t-7 25.5v335q0 28 4 64.5t15 72t30 57.5v8h30v-7q-19 -15 -30 -50t-16.5 -75t-5.5 -70v-341h595q23 0 35 5.5t17 18.5t5 34v423q0 29 -13.5 42t-33.5 13h-613q-11 0 -15 5.5t-4 15.5q0 6 1 16.5t2.5 22.5t3.5 23h13v-20q0 -18 5.5 -26.5t16.5 -8.5
h591q24 0 40 -9t24.5 -25.5t8.5 -41.5v-424q0 -52 -18.5 -72t-51.5 -20h-600z" />
    <glyph glyph-name="uniFB27" unicode="&#xfb27;" horiz-adv-x="754" 
d="M647 -6v515q0 29 -13.5 42t-33.5 13h-557q-11 0 -15 5.5t-4 15.5q0 9 2 27.5t5 34.5h13v-20q0 -18 5.5 -26.5t16.5 -8.5h535q24 0 40 -9t24 -25.5t8 -41.5l4 -508q-4 -4 -10.5 -7.5t-14.5 -6.5h-5z" />
    <glyph glyph-name="uniFB28" unicode="&#xfb28;" horiz-adv-x="858" 
d="M751 -6v515q0 29 -13.5 42t-33.5 13h-619q-11 0 -15 5.5t-4 15.5q0 9 2 27.5t5 34.5h13v-20q0 -18 5.5 -26.5t16.5 -8.5h597q24 0 40 -9t24 -25.5t8 -41.5l4 -508q-4 -4 -10.5 -7.5t-14.5 -6.5h-5zM37 0l3 28h80q4 0 5 3.5t1 7.5l-15 253q-2 46 0.5 89.5t10 88.5t17.5 93
v7h22v-6q-8 -37 -13.5 -71.5t-8.5 -67t-3 -62.5t2 -57q3 -36 6 -74.5t5.5 -75t4 -67.5t1.5 -52q0 -11 -1.5 -19t-4.5 -18h-112z" />
    <glyph glyph-name="uniFB29" unicode="&#xfb29;" horiz-adv-x="559" 
d="M65 343v28h200v201h28v-201h201v-28h-429z" />
    <glyph glyph-name="uniFB2A" unicode="&#xfb2a;" horiz-adv-x="687" 
d="M114 0q-4 27 -8.5 64.5t-9 81t-7 88t-2.5 84.5q0 59 5 106t12.5 83.5t13.5 61.5l-37 4q-7 1 -11.5 3.5t-6 7t-1.5 11.5q0 13 2 25.5t5 26.5h13v-18q0 -19 4 -24t18 -7l72 -8q5 -1 7 -3.5t2 -7.5q0 -6 -1 -10t-3 -8l-37 4q-7 -28 -18.5 -82t-11.5 -149q0 -49 3.5 -104.5
t10 -108t13.5 -93.5h139l76 542l-37 4q-11 2 -15 7t-4 15q0 13 2 25t5 26h13v-18q0 -18 4 -23t18 -7l82 -9q5 -1 7 -3.5t2 -7.5q0 -6 -1 -10t-3 -8l-46 5l-76 -538h86q20 0 38.5 7t34 20.5t29.5 34t25 46.5t20 57.5t15 68.5l51 302l-85 10q-11 2 -15 7t-4 15q0 13 2 25t5 26
h13v-18q0 -18 4 -23t18 -7l82 -9q3 0 5 -1.5t3 -4t1 -5.5l-49 -308q-3 -17 -8.5 -43t-15 -56.5t-24 -61t-35 -55.5t-48.5 -40t-65 -15h-276zM577 660q-12 0 -16.5 8.5t-4.5 19.5t4.5 19.5t16.5 8.5q15 0 19 -8.5t4 -19.5t-4 -19.5t-19 -8.5z" />
    <glyph glyph-name="uniFB2B" unicode="&#xfb2b;" horiz-adv-x="687" 
d="M114 0q-4 27 -8.5 64.5t-9 81t-7 88t-2.5 84.5q0 59 5 106t12.5 83.5t13.5 61.5l-37 4q-7 1 -11.5 3.5t-6 7t-1.5 11.5q0 13 2 25.5t5 26.5h13v-18q0 -19 4 -24t18 -7l72 -8q5 -1 7 -3.5t2 -7.5q0 -6 -1 -10t-3 -8l-37 4q-7 -28 -18.5 -82t-11.5 -149q0 -49 3.5 -104.5
t10 -108t13.5 -93.5h139l76 542l-37 4q-11 2 -15 7t-4 15q0 13 2 25t5 26h13v-18q0 -18 4 -23t18 -7l82 -9q5 -1 7 -3.5t2 -7.5q0 -6 -1 -10t-3 -8l-46 5l-76 -538h86q20 0 38.5 7t34 20.5t29.5 34t25 46.5t20 57.5t15 68.5l51 302l-85 10q-11 2 -15 7t-4 15q0 13 2 25t5 26
h13v-18q0 -18 4 -23t18 -7l82 -9q3 0 5 -1.5t3 -4t1 -5.5l-49 -308q-3 -17 -8.5 -43t-15 -56.5t-24 -61t-35 -55.5t-48.5 -40t-65 -15h-276zM122 660q-12 0 -16.5 8.5t-4.5 19.5t4.5 19.5t16.5 8.5q15 0 19 -8.5t4 -19.5t-4 -19.5t-19 -8.5z" />
    <glyph glyph-name="uniFB2C" unicode="&#xfb2c;" horiz-adv-x="687" 
d="M114 0q-4 27 -8.5 64.5t-9 81t-7 88t-2.5 84.5q0 59 5 106t12.5 83.5t13.5 61.5l-37 4q-7 1 -11.5 3.5t-6 7t-1.5 11.5q0 13 2 25.5t5 26.5h13v-18q0 -19 4 -24t18 -7l72 -8q5 -1 7 -3.5t2 -7.5q0 -6 -1 -10t-3 -8l-37 4q-7 -28 -18.5 -82t-11.5 -149q0 -49 3.5 -104.5
t10 -108t13.5 -93.5h139l76 542l-37 4q-11 2 -15 7t-4 15q0 13 2 25t5 26h13v-18q0 -18 4 -23t18 -7l82 -9q5 -1 7 -3.5t2 -7.5q0 -6 -1 -10t-3 -8l-46 5l-76 -538h86q20 0 38.5 7t34 20.5t29.5 34t25 46.5t20 57.5t15 68.5l51 302l-85 10q-11 2 -15 7t-4 15q0 13 2 25t5 26
h13v-18q0 -18 4 -23t18 -7l82 -9q3 0 5 -1.5t3 -4t1 -5.5l-49 -308q-3 -17 -8.5 -43t-15 -56.5t-24 -61t-35 -55.5t-48.5 -40t-65 -15h-276zM430 310q0 11 4.5 19.5t16.5 8.5q15 0 19 -8.5t4 -19.5t-4 -19.5t-19 -8.5q-13 0 -17 8.5t-4 19.5zM577 660q-12 0 -16.5 8.5
t-4.5 19.5t4.5 19.5t16.5 8.5q15 0 19 -8.5t4 -19.5t-4 -19.5t-19 -8.5z" />
    <glyph glyph-name="uniFB2D" unicode="&#xfb2d;" horiz-adv-x="687" 
d="M114 0q-4 27 -8.5 64.5t-9 81t-7 88t-2.5 84.5q0 59 5 106t12.5 83.5t13.5 61.5l-37 4q-7 1 -11.5 3.5t-6 7t-1.5 11.5q0 13 2 25.5t5 26.5h13v-18q0 -19 4 -24t18 -7l72 -8q5 -1 7 -3.5t2 -7.5q0 -6 -1 -10t-3 -8l-37 4q-7 -28 -18.5 -82t-11.5 -149q0 -49 3.5 -104.5
t10 -108t13.5 -93.5h139l76 542l-37 4q-11 2 -15 7t-4 15q0 13 2 25t5 26h13v-18q0 -18 4 -23t18 -7l82 -9q5 -1 7 -3.5t2 -7.5q0 -6 -1 -10t-3 -8l-46 5l-76 -538h86q20 0 38.5 7t34 20.5t29.5 34t25 46.5t20 57.5t15 68.5l51 302l-85 10q-11 2 -15 7t-4 15q0 13 2 25t5 26
h13v-18q0 -18 4 -23t18 -7l82 -9q3 0 5 -1.5t3 -4t1 -5.5l-49 -308q-3 -17 -8.5 -43t-15 -56.5t-24 -61t-35 -55.5t-48.5 -40t-65 -15h-276zM430 310q0 11 4.5 19.5t16.5 8.5q15 0 19 -8.5t4 -19.5t-4 -19.5t-19 -8.5q-13 0 -17 8.5t-4 19.5zM122 660q-12 0 -16.5 8.5
t-4.5 19.5t4.5 19.5t16.5 8.5q15 0 19 -8.5t4 -19.5t-4 -19.5t-19 -8.5z" />
    <glyph glyph-name="uniFB2E" unicode="&#xfb2e;" horiz-adv-x="579" 
d="M499 -3q0 6 -1.5 10.5t-4 9.5t-7.5 11l-409 559q-7 11 -11 19t-4 15q0 6 2 12.5t4 13.5h13v-5q0 -10 3 -16.5t7 -11.5l399 -547q7 -9 12.5 -18t8.5 -17t3 -15q0 -4 -1.5 -9.5t-3.5 -10.5h-10zM70 0v20h25q6 0 8 3t1 12l-20 190q-4 35 0.5 73.5t18.5 80.5l40 120h27
l-40 -120q-12 -37 -18 -75.5t-2 -73.5l20 -187q2 -21 2 -28t-2 -15h-60zM400 185l-26 33q0 49 5 93t14 82t19 66l44 121h26l-43 -121q-12 -33 -20.5 -68t-13.5 -83t-5 -123zM522 561l-100 12q-11 2 -15 6.5t-4 17.5q0 11 2 23.5t5 26.5h13v-18q0 -19 4 -24t18 -7l72 -8
q5 -1 7 -4t2 -8q0 -4 -1 -8.5t-3 -8.5zM253 -107l3 25h105l-3 -25h-105z" />
    <glyph glyph-name="uniFB2F" unicode="&#xfb2f;" horiz-adv-x="579" 
d="M499 -3q0 6 -1.5 10.5t-4 9.5t-7.5 11l-409 559q-7 11 -11 19t-4 15q0 6 2 12.5t4 13.5h13v-5q0 -10 3 -16.5t7 -11.5l399 -547q7 -9 12.5 -18t8.5 -17t3 -15q0 -4 -1.5 -9.5t-3.5 -10.5h-10zM70 0v20h25q6 0 8 3t1 12l-20 190q-4 35 0.5 73.5t18.5 80.5l40 120h27
l-40 -120q-12 -37 -18 -75.5t-2 -73.5l20 -187q2 -21 2 -28t-2 -15h-60zM400 185l-26 33q0 49 5 93t14 82t19 66l44 121h26l-43 -121q-12 -33 -20.5 -68t-13.5 -83t-5 -123zM522 561l-100 12q-11 2 -15 6.5t-4 17.5q0 11 2 23.5t5 26.5h13v-18q0 -19 4 -24t18 -7l72 -8
q5 -1 7 -4t2 -8q0 -4 -1 -8.5t-3 -8.5zM292 -196v90h-41l3 25h105l-3 -25h-39v-87z" />
    <glyph glyph-name="uniFB30" unicode="&#xfb30;" horiz-adv-x="579" 
d="M499 -3q0 6 -1.5 10.5t-4 9.5t-7.5 11l-409 559q-7 11 -11 19t-4 15q0 6 2 12.5t4 13.5h13v-5q0 -10 3 -16.5t7 -11.5l399 -547q7 -9 12.5 -18t8.5 -17t3 -15q0 -4 -1.5 -9.5t-3.5 -10.5h-10zM70 0v20h25q6 0 8 3t1 12l-20 190q-4 35 0.5 73.5t18.5 80.5l40 120h27
l-40 -120q-12 -37 -18 -75.5t-2 -73.5l20 -187q2 -21 2 -28t-2 -15h-60zM400 185l-26 33q0 49 5 93t14 82t19 66l44 121h26l-43 -121q-12 -33 -20.5 -68t-13.5 -83t-5 -123zM522 561l-100 12q-11 2 -15 6.5t-4 17.5q0 11 2 23.5t5 26.5h13v-18q0 -19 4 -24t18 -7l72 -8
q5 -1 7 -4t2 -8q0 -4 -1 -8.5t-3 -8.5zM210 203q0 11 4.5 19.5t16.5 8.5q15 0 19 -8.5t4 -19.5t-4 -19.5t-19 -8.5q-13 0 -17 8.5t-4 19.5z" />
    <glyph glyph-name="uniFB31" unicode="&#xfb31;" horiz-adv-x="496" 
d="M46 0l3 28h303q3 7 6 26t5 40.5t2 35.5v386q0 28 -11 38t-31 10h-254q-11 0 -15 5.5t-4 15.5q0 6 1 16.5t2.5 22.5t3.5 23h13v-20q0 -18 5.5 -26.5t16.5 -8.5h233q35 0 51 -16t16 -53v-380q0 -16 -2.5 -41t-5.5 -46t-5 -28h59v-28h-392zM174 310q0 11 4.5 19.5t16.5 8.5
q15 0 19 -8.5t4 -19.5t-4 -19.5t-19 -8.5q-13 0 -17 8.5t-4 19.5z" />
    <glyph glyph-name="uniFB32" unicode="&#xfb32;" horiz-adv-x="275" 
d="M219 -3q-3 12 -7.5 31t-8.5 38t-8 31l-46 -82q-4 -7 -7.5 -11t-10.5 -4h-106l3 28h79q16 0 33 20t29.5 48t12.5 50v404q0 8 -2 11t-9 3h-70q-10 0 -14.5 4.5t-4.5 13.5q0 12 1.5 25t3 23.5t2.5 16.5h13v-20q0 -18 5.5 -26.5t16.5 -8.5h66q11 0 15 -5.5t4 -15.5v-395
q0 -9 0.5 -18t2.5 -18t4 -19l27 -111q-3 -4 -10 -8.5t-11 -4.5h-3zM84 310q0 11 4.5 19.5t16.5 8.5q15 0 19 -8.5t4 -19.5t-4 -19.5t-19 -8.5q-13 0 -17 8.5t-4 19.5z" />
    <glyph glyph-name="uniFB33" unicode="&#xfb33;" horiz-adv-x="455" 
d="M320 -6v450q0 29 0.5 49.5t1 37t0.5 32.5v1h-278q-10 0 -14.5 4.5t-4.5 13.5q0 12 1.5 25t3 23.5t2.5 16.5h13v-20q0 -18 5.5 -26.5t16.5 -8.5h316q5 0 7.5 -2t2.5 -7v-19h-48l5 -556q-4 -4 -10.5 -7.5t-14.5 -6.5h-5zM162 310q0 11 4.5 19.5t16.5 8.5q15 0 19 -8.5
t4 -19.5t-4 -19.5t-19 -8.5q-13 0 -17 8.5t-4 19.5z" />
    <glyph glyph-name="uniFB34" unicode="&#xfb34;" horiz-adv-x="570" 
d="M443 -6v450v52t0.5 39.5t0.5 27.5v1h-353q-11 0 -15 5.5t-4 15.5q0 6 1 16.5t2.5 22.5t3.5 23h13v-20q0 -18 5.5 -26.5t16.5 -8.5h359q5 0 7.5 -2t2.5 -7v-16l-16 -3l6 -556q-4 -4 -10.5 -7.5t-14.5 -6.5h-5zM87 -6v320q0 29 3.5 42.5t10.5 18.5l9 7l4 -4v-370
q-4 -4 -9 -7.5t-13 -6.5h-5zM257 310q0 11 4.5 19.5t16.5 8.5q15 0 19 -8.5t4 -19.5t-4 -19.5t-19 -8.5q-13 0 -17 8.5t-4 19.5z" />
    <glyph glyph-name="uniFB35" unicode="&#xfb35;" horiz-adv-x="272" 
d="M155 -6v556q0 8 -2.5 11t-9.5 3h-72q-10 0 -14.5 4.5t-4.5 13.5q0 12 1.5 25t3 23.5t2.5 16.5h13v-20q0 -18 5.5 -26.5t16.5 -8.5h69q11 0 15 -5.5t4 -15.5l3 -563q-4 -4 -10.5 -7.5t-14.5 -6.5h-5zM66 310q0 11 4.5 19.5t16.5 8.5q15 0 19 -8.5t4 -19.5t-4 -19.5
t-19 -8.5q-13 0 -17 8.5t-4 19.5z" />
    <glyph glyph-name="uniFB36" unicode="&#xfb36;" horiz-adv-x="247" 
d="M123 -6q-5 34 -10 74.5t-9 84t-6.5 87.5t-2.5 85t2.5 84.5t8 87t13.5 84.5h27q-8 -40 -13.5 -79.5t-8 -80.5t-2.5 -86q0 -67 5 -130t12.5 -114t13.5 -83q-4 -4 -10.5 -7.5t-14.5 -6.5h-5zM191 560l-109 13q-11 2 -15 7t-4 15q0 13 2 25.5t5 26.5h13v-18q0 -19 4 -24
t18 -7l81 -9q5 -1 7 -3.5t2 -7.5q0 -6 -1 -10t-3 -8zM6 310q0 11 4.5 19.5t16.5 8.5q15 0 19 -8.5t4 -19.5t-4 -19.5t-19 -8.5q-13 0 -17 8.5t-4 19.5z" />
    <glyph glyph-name="uniFB38" unicode="&#xfb38;" horiz-adv-x="576" 
d="M117 0q-5 36 -11.5 89.5t-11 115.5t-4.5 121q0 63 5 115t10.5 88.5t8.5 51.5h27q-3 -15 -8.5 -45.5t-10.5 -78t-5 -115.5q0 -55 3.5 -112t10 -109t13.5 -93h228q20 0 29 8.5t22 33.5q16 32 33 77.5t28.5 105t11.5 134.5q0 48 -7.5 91t-29 70t-64.5 27q-31 0 -52 -17
t-31.5 -51t-10.5 -85h-28q0 92 32 137t96 45q43 0 70 -24t40 -73t13 -125q0 -33 -4.5 -82.5t-20 -111.5t-48.5 -133q-10 -21 -19.5 -33t-25 -17t-44.5 -5h-245zM182 561l-100 12q-11 2 -15 7t-4 15q0 13 2 25.5t5 26.5h13v-18q0 -19 4 -24t18 -7l72 -8q5 -1 7 -3.5t2 -7.5
q0 -6 -1 -10t-3 -8zM285 310q0 11 4.5 19.5t16.5 8.5q15 0 19 -8.5t4 -19.5t-4 -19.5t-19 -8.5q-13 0 -17 8.5t-4 19.5z" />
    <glyph glyph-name="uniFB39" unicode="&#xfb39;" horiz-adv-x="290" 
d="M140 353l-18 15l48 70q17 25 24 52.5t7 55.5q0 10 -2 14t-11 4h-117q-11 0 -15 5.5t-4 15.5q0 6 1 16.5t2.5 22.5t3.5 23h13v-20q0 -18 5.5 -26.5t16.5 -8.5h108q14 0 20 -6.5t6 -29.5q0 -20 -5 -43.5t-13.5 -46.5t-21.5 -42zM96 483q0 11 4.5 19.5t16.5 8.5
q15 0 19 -8.5t4 -19.5t-4 -19.5t-19 -8.5q-13 0 -17 8.5t-4 19.5z" />
    <glyph glyph-name="uniFB3A" unicode="&#xfb3a;" horiz-adv-x="463" 
d="M341 -240v685q0 43 3.5 72t5.5 46v1h-307q-11 0 -15 5.5t-4 15.5q0 6 1 16.5t2.5 22.5t3.5 23h13v-20q0 -18 5.5 -26.5t16.5 -8.5h300q5 0 7.5 -2t2.5 -7v-19q-1 -12 -3.5 -30t-4 -40t-1.5 -49l4 -671q-4 -4 -10.5 -7.5t-14.5 -6.5h-5zM175 310q0 11 4.5 19.5t16.5 8.5
q15 0 19 -8.5t4 -19.5t-4 -19.5t-19 -8.5q-13 0 -17 8.5t-4 19.5z" />
    <glyph glyph-name="uniFB3B" unicode="&#xfb3b;" horiz-adv-x="508" 
d="M60 0l3 28h284q34 0 45.5 13.5t11.5 44.5v423q0 19 -6.5 31t-17 18t-23.5 6h-274q-11 0 -15 5.5t-4 15.5q0 6 1 16.5t2.5 22.5t3.5 23h13v-20q0 -18 5.5 -26.5t16.5 -8.5h252q35 0 54 -19.5t19 -56.5v-424q0 -35 -8.5 -55t-24 -28.5t-37.5 -8.5h-301zM223 310
q0 11 4.5 19.5t16.5 8.5q15 0 19 -8.5t4 -19.5t-4 -19.5t-19 -8.5q-13 0 -17 8.5t-4 19.5z" />
    <glyph glyph-name="uniFB3C" unicode="&#xfb3c;" horiz-adv-x="483" 
d="M192 -7q-7 0 -11 4t-4 10v73q0 11 6 23t17 25l175 194q6 7 8 11.5t2 11.5v200q0 9 -5 14t-14 5h-318q-7 0 -15.5 3t-8.5 13q0 7 5 28t12.5 49.5t15.5 57t14 50.5t7 29q1 4 0 6.5t-6 3.5l-20 3q-8 2 -11.5 5.5t-3.5 13.5q0 11 3 26t4 21h13v-11q0 -9 4.5 -18t17.5 -11
l18 -2q9 -1 12 -8t-2 -25l-50 -185q-3 -11 1.5 -16t14.5 -5h304q16 0 23.5 -6.5t10 -16t2.5 -18.5l-1 -210q0 -9 -5 -18.5t-14 -20.5l-172 -191q-8 -9 -11 -15t-3 -16v-73q0 -6 -3.5 -10t-11.5 -4zM196 369q0 11 4.5 19.5t16.5 8.5q15 0 19 -8.5t4 -19.5t-4 -19.5t-19 -8.5
q-13 0 -17 8.5t-4 19.5z" />
    <glyph glyph-name="uniFB3E" unicode="&#xfb3e;" horiz-adv-x="583" 
d="M59 0l22 280q5 63 19.5 107.5t29.5 72.5t21 41q7 14 8.5 22.5t1.5 23.5q0 17 -29 17h-56q-11 0 -15 5.5t-4 15.5q0 9 2 27.5t5 34.5h13v-20q0 -18 5.5 -26.5t16.5 -8.5h64q11 0 15 -5.5t4 -15.5v-44l2 -1l82 72h17q79 0 130.5 -35.5t77 -108.5t25.5 -187q0 -17 -1 -44.5
t-3 -62t-6 -75.5t-11 -85h-251l3 28h210q9 0 11 3t4 16q5 32 11 88t6 116q0 89 -14.5 149t-39.5 96t-55.5 52t-63.5 16q-43 0 -79.5 -23.5t-64 -63.5t-44 -88t-20.5 -98l-22 -291h-27zM277 310q0 11 4.5 19.5t16.5 8.5q15 0 19 -8.5t4 -19.5t-4 -19.5t-19 -8.5
q-13 0 -17 8.5t-4 19.5z" />
    <glyph glyph-name="uniFB40" unicode="&#xfb40;" horiz-adv-x="329" 
d="M37 0l3 28h128q23 0 35 5.5t17 18.5t5 34v430q0 28 -11 38t-31 10h-64q-11 0 -15 5.5t-4 15.5q0 6 1 16.5t2.5 22.5t3.5 23h13v-20q0 -18 5.5 -26.5t16.5 -8.5h43q24 0 38.5 -7t21.5 -22t7 -40v-431q0 -35 -8.5 -55t-24 -28.5t-37.5 -8.5h-145zM112 310q0 11 4.5 19.5
t16.5 8.5q15 0 19 -8.5t4 -19.5t-4 -19.5t-19 -8.5q-13 0 -17 8.5t-4 19.5z" />
    <glyph glyph-name="uniFB41" unicode="&#xfb41;" horiz-adv-x="563" 
d="M287 -9q-70 0 -119.5 35.5t-75 100.5t-25.5 151q0 72 16 149t40 134v8h22v-5q-9 -29 -21 -73.5t-21 -97t-9 -106.5q0 -72 19.5 -133t63 -98t114.5 -37q50 0 90.5 27.5t64 89t23.5 161.5q0 97 -14.5 155.5t-46 85t-83.5 26.5h-229q-11 0 -15 5.5t-4 15.5q0 9 2 27.5
t5 34.5h13v-20q0 -18 5.5 -26.5t16.5 -8.5h202q40 0 68.5 -8.5t48 -29.5t31.5 -59q11 -34 19 -89.5t8 -112.5q0 -26 -3.5 -64.5t-14.5 -79.5t-34 -77t-61 -58.5t-96 -22.5zM260 310q0 11 4.5 19.5t16.5 8.5q15 0 19 -8.5t4 -19.5t-4 -19.5t-19 -8.5q-13 0 -17 8.5t-4 19.5z
" />
    <glyph glyph-name="uniFB43" unicode="&#xfb43;" horiz-adv-x="518" 
d="M411 -240v749q0 29 -13.5 42t-33.5 13h-308q-11 0 -15 5.5t-4 15.5q0 9 2 27.5t5 34.5h13v-20q0 -18 5.5 -26.5t16.5 -8.5h286q35 0 53.5 -19.5t18.5 -56.5l4 -742q-4 -4 -9.5 -7.5t-13.5 -6.5h-7zM172 273q-13 17 -24 22.5t-25 5.5q-16 0 -28 -5.5t-26 -17.5h-24v8
q0 38 7 88t21 100.5t35 88.5v10h23v-9q-5 -10 -14.5 -36t-19.5 -61.5t-17 -75.5t-7 -78v-7q15 11 28 17t30 6q14 0 25 -4.5t17.5 -12.5t6.5 -19q0 -5 -1.5 -8.5t-6.5 -11.5zM274 288q0 11 4.5 19.5t16.5 8.5q15 0 19 -8.5t4 -19.5t-4 -19.5t-19 -8.5q-13 0 -17 8.5t-4 19.5z
" />
    <glyph glyph-name="uniFB44" unicode="&#xfb44;" horiz-adv-x="542" 
d="M62 0l3 28h316q34 0 45.5 13.5t11.5 44.5v423q0 19 -6.5 31t-17 18t-23.5 6h-308q-11 0 -15 5.5t-4 15.5q0 9 2 27.5t5 34.5h13v-20q0 -18 5.5 -26.5t16.5 -8.5h286q35 0 54 -19.5t19 -56.5v-424q0 -35 -8.5 -55t-24 -28.5t-37.5 -8.5h-333zM199 283q-13 17 -24 22.5
t-25 5.5q-16 0 -28 -5.5t-26 -17.5h-24v5q0 37 7 85.5t21 97.5t35 87v10h23v-9q-6 -14 -20 -52t-26 -88t-12 -101v-7q15 11 28 17t30 6q14 0 25 -4.5t17.5 -12.5t6.5 -19q0 -5 -1.5 -8.5t-6.5 -11.5zM301 310q0 11 4.5 19.5t16.5 8.5q15 0 19 -8.5t4 -19.5t-4 -19.5
t-19 -8.5q-13 0 -17 8.5t-4 19.5z" />
    <glyph glyph-name="uniFB46" unicode="&#xfb46;" horiz-adv-x="504" 
d="M40 0l3 28h334q6 0 8.5 4t4.5 9q3 8 4 17t1 17q0 34 -10.5 49t-27.5 34l-156 166q-29 31 -37.5 54t-8.5 58v114q0 8 -2.5 11t-9.5 3h-72q-11 0 -15 5.5t-4 15.5q0 9 2 27.5t5 34.5h13v-20q0 -18 5.5 -26.5t16.5 -8.5h69q11 0 15 -5.5t4 -15.5v-131q0 -29 4.5 -46t17 -33
t37.5 -43l143 -153q15 -16 22.5 -30.5t9.5 -27.5t2 -25q0 -17 -2.5 -31.5t-7 -27t-9.5 -23.5h-359zM309 241l-24 23q0 41 10.5 80t25.5 75t27 64l43 97h26l-42 -97q-14 -33 -29.5 -68t-26 -77t-10.5 -97zM455 561l-100 12q-11 2 -15 6.5t-4 17.5q0 7 1 15t2.5 17t3.5 18h13
v-18q0 -19 4 -24t18 -7l72 -8q5 -1 7 -4t2 -8q0 -4 -1 -8.5t-3 -8.5zM111 253q0 11 4.5 19.5t16.5 8.5q15 0 19 -8.5t4 -19.5t-4 -19.5t-19 -8.5q-13 0 -17 8.5t-4 19.5z" />
    <glyph glyph-name="uniFB47" unicode="&#xfb47;" horiz-adv-x="550" 
d="M292 -7q-7 0 -11 4t-4 10v73q0 11 5.5 23.5t17.5 24.5l145 140q5 4 7 7.5t2.5 7.5t0.5 8v254q0 9 -5 14t-14 5h-330q-11 0 -15 5.5t-4 15.5q0 9 2 27.5t5 34.5h13v-20q0 -18 5.5 -26.5t16.5 -8.5h318q24 0 29.5 -13.5t5.5 -27.5v-254q0 -12 -2 -20.5t-6 -15t-11 -13.5
l-142 -137q-9 -8 -11.5 -14.5t-2.5 -16.5v-73q0 -6 -3.5 -10t-11.5 -4zM102 -240v554q0 29 3.5 42.5t10.5 18.5l9 7l4 -4l3 -604q-4 -4 -10.5 -7.5t-14.5 -6.5h-5zM270 310q0 11 4.5 19.5t16.5 8.5q15 0 19 -8.5t4 -19.5t-4 -19.5t-19 -8.5q-13 0 -17 8.5t-4 19.5z" />
    <glyph glyph-name="uniFB48" unicode="&#xfb48;" horiz-adv-x="454" 
d="M347 -6v515q0 29 -13.5 42t-33.5 13h-257q-11 0 -15 5.5t-4 15.5q0 9 2 27.5t5 34.5h13v-20q0 -18 5.5 -26.5t16.5 -8.5h235q24 0 40 -9t24 -25.5t8 -41.5l4 -508q-4 -4 -10.5 -7.5t-14.5 -6.5h-5zM165 310q0 11 4.5 19.5t16.5 8.5q15 0 19 -8.5t4 -19.5t-4 -19.5
t-19 -8.5q-13 0 -17 8.5t-4 19.5z" />
    <glyph glyph-name="uniFB49" unicode="&#xfb49;" horiz-adv-x="687" 
d="M114 0q-4 27 -8.5 64.5t-9 81t-7 88t-2.5 84.5q0 59 5 106t12.5 83.5t13.5 61.5l-37 4q-7 1 -11.5 3.5t-6 7t-1.5 11.5q0 13 2 25.5t5 26.5h13v-18q0 -19 4 -24t18 -7l72 -8q5 -1 7 -3.5t2 -7.5q0 -6 -1 -10t-3 -8l-37 4q-7 -28 -18.5 -82t-11.5 -149q0 -49 3.5 -104.5
t10 -108t13.5 -93.5h139l76 542l-37 4q-11 2 -15 7t-4 15q0 13 2 25t5 26h13v-18q0 -18 4 -23t18 -7l82 -9q5 -1 7 -3.5t2 -7.5q0 -6 -1 -10t-3 -8l-46 5l-76 -538h86q20 0 38.5 7t34 20.5t29.5 34t25 46.5t20 57.5t15 68.5l51 302l-85 10q-11 2 -15 7t-4 15q0 13 2 25t5 26
h13v-18q0 -18 4 -23t18 -7l82 -9q3 0 5 -1.5t3 -4t1 -5.5l-49 -308q-3 -17 -8.5 -43t-15 -56.5t-24 -61t-35 -55.5t-48.5 -40t-65 -15h-276zM430 310q0 11 4.5 19.5t16.5 8.5q15 0 19 -8.5t4 -19.5t-4 -19.5t-19 -8.5q-13 0 -17 8.5t-4 19.5z" />
    <glyph glyph-name="uniFB4A" unicode="&#xfb4a;" horiz-adv-x="558" 
d="M451 -6v515q0 29 -13.5 42t-33.5 13h-319q-11 0 -15 5.5t-4 15.5q0 9 2 27.5t5 34.5h13v-20q0 -18 5.5 -26.5t16.5 -8.5h297q24 0 40 -9t24 -25.5t8 -41.5l4 -508q-4 -4 -10.5 -7.5t-14.5 -6.5h-5zM37 0l3 28h80q4 0 5 3.5t1 7.5l-15 253q-2 46 0.5 89.5t10 88.5t17.5 93
v7h22v-6q-8 -37 -13.5 -71.5t-8.5 -67t-3 -62.5t2 -57q3 -36 6 -74.5t5.5 -75t4 -67.5t1.5 -52q0 -11 -1.5 -19t-4.5 -18h-112zM273 310q0 11 4.5 19.5t16.5 8.5q15 0 19 -8.5t4 -19.5t-4 -19.5t-19 -8.5q-13 0 -17 8.5t-4 19.5z" />
    <glyph glyph-name="uniFB4B" unicode="&#xfb4b;" horiz-adv-x="272" 
d="M155 -6v556q0 8 -2.5 11t-9.5 3h-72q-10 0 -14.5 4.5t-4.5 13.5q0 12 1.5 25t3 23.5t2.5 16.5h13v-20q0 -18 5.5 -26.5t16.5 -8.5h69q11 0 15 -5.5t4 -15.5l3 -563q-4 -4 -10.5 -7.5t-14.5 -6.5h-5zM116 660q-12 0 -16.5 8.5t-4.5 19.5t4.5 19.5t16.5 8.5q15 0 19 -8.5
t4 -19.5t-4 -19.5t-19 -8.5z" />
    <glyph glyph-name="uniFB4C" unicode="&#xfb4c;" horiz-adv-x="496" 
d="M46 0l3 28h303q3 7 6 26t5 40.5t2 35.5v386q0 28 -11 38t-31 10h-254q-11 0 -15 5.5t-4 15.5q0 6 1 16.5t2.5 22.5t3.5 23h13v-20q0 -18 5.5 -26.5t16.5 -8.5h233q35 0 51 -16t16 -53v-380q0 -16 -2.5 -41t-5.5 -46t-5 -28h59v-28h-392zM121 685l3 25h161l-3 -25h-161z
" />
    <glyph glyph-name="uniFB4D" unicode="&#xfb4d;" horiz-adv-x="508" 
d="M60 0l3 28h284q34 0 45.5 13.5t11.5 44.5v423q0 19 -6.5 31t-17 18t-23.5 6h-274q-11 0 -15 5.5t-4 15.5q0 6 1 16.5t2.5 22.5t3.5 23h13v-20q0 -18 5.5 -26.5t16.5 -8.5h252q35 0 54 -19.5t19 -56.5v-424q0 -35 -8.5 -55t-24 -28.5t-37.5 -8.5h-301zM150 685l3 25h161
l-3 -25h-161z" />
    <glyph glyph-name="uniFB4E" unicode="&#xfb4e;" horiz-adv-x="542" 
d="M62 0l3 28h316q34 0 45.5 13.5t11.5 44.5v423q0 19 -6.5 31t-17 18t-23.5 6h-308q-11 0 -15 5.5t-4 15.5q0 9 2 27.5t5 34.5h13v-20q0 -18 5.5 -26.5t16.5 -8.5h286q35 0 54 -19.5t19 -56.5v-424q0 -35 -8.5 -55t-24 -28.5t-37.5 -8.5h-333zM199 283q-13 17 -24 22.5
t-25 5.5q-16 0 -28 -5.5t-26 -17.5h-24v5q0 37 7 85.5t21 97.5t35 87v10h23v-9q-6 -14 -20 -52t-26 -88t-12 -101v-7q15 11 28 17t30 6q14 0 25 -4.5t17.5 -12.5t6.5 -19q0 -5 -1.5 -8.5t-6.5 -11.5zM162 685l3 25h161l-3 -25h-161z" />
    <glyph glyph-name="uniFB4F" unicode="&#xfb4f;" horiz-adv-x="542" 
d="M461 -3q0 6 -1.5 10.5t-4 9.5t-7.5 11l-409 559q-7 11 -11 16.5t-4 12.5q0 5 2 13.5t7 26.5t14.5 51t24.5 87q1 4 0 6.5t-6 3.5l-20 3q-8 2 -11.5 5.5t-3.5 13.5q0 11 3 26t4 21h13v-11q0 -9 4.5 -18t17.5 -11l18 -2q9 -1 12 -8t-2 -25l-47 -170q-2 -8 -0.5 -13t7.5 -13
l391 -535q7 -9 12.5 -18t8.5 -16.5t3 -14.5q0 -5 -1.5 -10.5t-3.5 -10.5h-10zM362 183l-26 36q0 49 5 93t14 81.5t19 65.5l45 121h25l-43 -121q-12 -33 -20.5 -68.5t-13.5 -84t-5 -123.5zM485 561l-100 12q-11 2 -15 7t-4 15q0 13 2 25.5t5 26.5h13v-18q0 -19 4 -24t18 -7
l72 -8q5 -1 7 -3.5t2 -7.5q0 -6 -1 -10t-3 -8z" />
    <glyph glyph-name="hatafpatah_zerowidthjoiner_siluqlefthb" 
d="M50 -107l3 25h103l-3 -25h-103zM191 -211v142l25 3v-142zM272 -211q-13 0 -17 8.5t-4 19.5t4 19.5t17 8.5q15 0 19 -8.5t4 -19.5t-4 -19.5t-19 -8.5zM272 -122q-13 0 -17 8.5t-4 19.5t4 19.5t17 8.5q15 0 19 -8.5t4 -19.5t-4 -19.5t-19 -8.5z" />
    <glyph glyph-name="hatafqamats_zerowidthjoiner_siluqlefthb" 
d="M91 -196v90h-41l3 25h105l-3 -25h-39v-87zM193 -211v142l25 3v-142zM274 -211q-13 0 -17 8.5t-4 19.5t4 19.5t17 8.5q15 0 19 -8.5t4 -19.5t-4 -19.5t-19 -8.5zM274 -122q-13 0 -17 8.5t-4 19.5t4 19.5t17 8.5q15 0 19 -8.5t4 -19.5t-4 -19.5t-19 -8.5z" />
    <glyph glyph-name="hatafsegol_zerowidthjoiner_siluqlefthb" 
d="M224 -211v142l25 3v-142zM118 -211q-13 0 -17 8t-4 20q0 11 4 19.5t17 8.5q15 0 18.5 -8.5t3.5 -19.5q0 -12 -3.5 -20t-18.5 -8zM71 -122q-12 0 -16.5 8t-4.5 20q0 11 4.5 19.5t16.5 8.5q15 0 19 -8.5t4 -19.5q0 -12 -4 -20t-19 -8zM166 -122q-12 0 -16.5 8t-4.5 20
q0 11 4.5 19.5t16.5 8.5q15 0 19 -8.5t4 -19.5q0 -12 -4 -20t-19 -8zM305 -211q-13 0 -17 8.5t-4 19.5t4 19.5t17 8.5q15 0 19 -8.5t4 -19.5t-4 -19.5t-19 -8.5zM305 -122q-13 0 -17 8.5t-4 19.5t4 19.5t17 8.5q15 0 19 -8.5t4 -19.5t-4 -19.5t-19 -8.5z" />
    <glyph glyph-name="vav_shindothb" horiz-adv-x="272" 
d="M155 -6v556q0 8 -2.5 11t-9.5 3h-72q-10 0 -14.5 4.5t-4.5 13.5q0 12 1.5 25t3 23.5t2.5 16.5h13v-20q0 -18 5.5 -26.5t16.5 -8.5h69q11 0 15 -5.5t4 -15.5l3 -563q-4 -4 -10.5 -7.5t-14.5 -6.5h-5zM-2 660q-12 0 -16.5 8.5t-4.5 19.5t4.5 19.5t16.5 8.5q15 0 19 -8.5
t4 -19.5t-4 -19.5t-19 -8.5z" />
  </font>
</defs>
</svg>
